# xmcd
#
# Track frame offsets: 
#        150
#        16012
#        30037
#        52462
#        64200
#        78562
#        91575
#        111825
#        126525
#        141112
#        161625
#        202275
#
# Disc length: 2909 seconds
#
# Revision: 4
# Processed by: cddbd v1.5.2PL0 Copyright (c) Steve Scherf et al.
# Submitted via: ExactAudioCopy v1.0b3
#
DISCID=a50b5b0c
DTITLE=Monster Mike Welch - Axe To Grind
DYEAR=1997
DGENRE=Blues
TTITLE0=Did She Say
TTITLE1=Palm of Her Hand
TTITLE2=Axe to Grind
TTITLE3=The Elkmont Stomp
TTITLE4=Every Time You Lie
TTITLE5=Afraid of My Own Tears
TTITLE6=Take Your Best Shot
TTITLE7=She Couldn't Know
TTITLE8=Time Stands Still
TTITLE9=That's My Sin
TTITLE10=My Emptiness
TTITLE11=Cruise Control
EXTD=YEAR: 1997
EXTT0=
EXTT1=
EXTT2=
EXTT3=
EXTT4=
EXTT5=
EXTT6=
EXTT7=
EXTT8=
EXTT9=
EXTT10=
EXTT11=
PLAYORDER=
